<svg xmlns="http://www.w3.org/2000/svg" xmlns:xlink="http://www.w3.org/1999/xlink" width="480" zoomAndPan="magnify" viewBox="0 0 360 60" height="80" preserveAspectRatio="xMidYMid meet" version="1.0"><defs><g/></defs><g fill="#bf8e8e" fill-opacity="1"><g transform="translate(73.926904, 34.221582)"><g><path d="M 18.390625 -31.671875 L 31.171875 0 L 23.421875 0 L 21.078125 -6.328125 L 9.015625 -6.328125 L 6.6875 0 L -1.078125 0 L 11.703125 -31.671875 Z M 18.625 -12.671875 L 15.09375 -21.875 L 15.015625 -21.875 L 11.484375 -12.671875 Z M 18.625 -12.671875 "/></g></g></g><g fill="#bf8e8e" fill-opacity="1"><g transform="translate(104.027154, 34.221582)"><g><path d="M 9.515625 -19.65625 L 9.515625 0 L 2.296875 0 L 2.296875 -31.671875 L 9.515625 -31.671875 L 22.109375 -12.015625 L 22.1875 -12.015625 L 22.1875 -31.671875 L 29.40625 -31.671875 L 29.40625 0 L 22.1875 0 L 9.59375 -19.65625 Z M 9.515625 -19.65625 "/></g></g></g><g fill="#bf8e8e" fill-opacity="1"><g transform="translate(135.739912, 34.221582)"><g><path d="M 18.390625 -31.671875 L 31.171875 0 L 23.421875 0 L 21.078125 -6.328125 L 9.015625 -6.328125 L 6.6875 0 L -1.078125 0 L 11.703125 -31.671875 Z M 18.625 -12.671875 L 15.09375 -21.875 L 15.015625 -21.875 L 11.484375 -12.671875 Z M 18.625 -12.671875 "/></g></g></g><g fill="#bf8e8e" fill-opacity="1"><g transform="translate(165.840162, 34.221582)"><g/></g></g><g fill="#bf8e8e" fill-opacity="1"><g transform="translate(176.321502, 34.221582)"><g><path d="M 9.515625 -19.65625 L 9.515625 0 L 2.296875 0 L 2.296875 -31.671875 L 9.515625 -31.671875 L 22.109375 -12.015625 L 22.1875 -12.015625 L 22.1875 -31.671875 L 29.40625 -31.671875 L 29.40625 0 L 22.1875 0 L 9.59375 -19.65625 Z M 9.515625 -19.65625 "/></g></g></g><g fill="#bf8e8e" fill-opacity="1"><g transform="translate(208.034259, 34.221582)"><g><path d="M 20.421875 -31.671875 L 20.421875 -25.34375 L 9.515625 -25.34375 L 9.515625 -19.046875 L 19.96875 -19.046875 L 19.96875 -12.703125 L 9.515625 -12.703125 L 9.515625 -6.328125 L 20.421875 -6.328125 L 20.421875 0 L 2.296875 0 L 2.296875 -31.671875 Z M 20.421875 -31.671875 "/></g></g></g><g fill="#bf8e8e" fill-opacity="1"><g transform="translate(230.302301, 34.221582)"><g><path d="M 2.296875 -31.671875 L 13.625 -31.671875 C 16.675781 -31.671875 19.160156 -30.859375 21.078125 -29.234375 C 22.992188 -27.609375 23.953125 -25.285156 23.953125 -22.265625 C 23.953125 -19.929688 23.367188 -17.976562 22.203125 -16.40625 C 21.046875 -14.832031 19.46875 -13.726562 17.46875 -13.09375 L 28.375 0 L 19.203125 0 L 9.515625 -12.515625 L 9.515625 0 L 2.296875 0 Z M 9.515625 -17.625 L 10.359375 -17.625 C 11.023438 -17.625 11.585938 -17.632812 12.046875 -17.65625 C 12.515625 -17.6875 13.039062 -17.773438 13.625 -17.921875 C 14.21875 -18.078125 14.691406 -18.296875 15.046875 -18.578125 C 15.410156 -18.859375 15.71875 -19.265625 15.96875 -19.796875 C 16.226562 -20.335938 16.359375 -20.992188 16.359375 -21.765625 C 16.359375 -22.535156 16.226562 -23.1875 15.96875 -23.71875 C 15.71875 -24.257812 15.410156 -24.671875 15.046875 -24.953125 C 14.691406 -25.234375 14.21875 -25.453125 13.625 -25.609375 C 13.039062 -25.765625 12.515625 -25.851562 12.046875 -25.875 C 11.585938 -25.894531 11.023438 -25.90625 10.359375 -25.90625 L 9.515625 -25.90625 Z M 9.515625 -17.625 "/></g></g></g><g fill="#bf8e8e" fill-opacity="1"><g transform="translate(257.791812, 34.221582)"><g><path d="M -1.15625 -31.671875 L 7.53125 -31.671875 L 14.125 -21.53125 L 20.734375 -31.671875 L 29.40625 -31.671875 L 17.734375 -14.203125 L 17.734375 0 L 10.515625 0 L 10.515625 -14.203125 Z M -1.15625 -31.671875 "/></g></g></g><g fill="#803e3e" fill-opacity="1"><g transform="translate(121.177277, 53.378487)"><g><path d="M 5.496094 0 L 5.496094 -9.222656 L 8.367188 -9.222656 L 8.367188 -11.511719 L 0.324219 -11.511719 L 0.324219 -9.222656 L 3.191406 -9.222656 L 3.191406 0 Z M 5.496094 0 "/></g></g></g><g fill="#803e3e" fill-opacity="1"><g transform="translate(134.027372, 53.378487)"><g><path d="M 7.253906 0 L 7.253906 -2.304688 L 3.59375 -2.304688 L 3.59375 -4.609375 L 6.625 -4.609375 L 6.625 -6.917969 L 3.59375 -6.917969 L 3.59375 -9.222656 L 7.0625 -9.222656 L 7.0625 -11.527344 L 1.289062 -11.527344 L 1.289062 0 Z M 7.253906 0 "/></g></g></g><g fill="#803e3e" fill-opacity="1"><g transform="translate(146.184174, 53.378487)"><g><path d="M 7.03125 0 L 9.640625 0 L 6.964844 -4.757812 C 10.351562 -5.738281 9.949219 -11.527344 5.835938 -11.527344 L 1.289062 -11.527344 L 1.289062 0 L 3.59375 0 L 3.59375 -4.402344 L 4.707031 -4.402344 Z M 3.59375 -6.644531 L 3.59375 -9.222656 L 5.628906 -9.222656 C 7.191406 -9.222656 7.191406 -6.644531 5.628906 -6.644531 Z M 3.59375 -6.644531 "/></g></g></g><g fill="#803e3e" fill-opacity="1"><g transform="translate(160.0984, 53.378487)"><g><path d="M 0.257812 0 L 2.871094 0 L 3.320312 -1.242188 L 7.140625 -1.242188 L 7.609375 0 L 10.207031 0 L 5.351562 -11.945312 L 5.109375 -11.945312 Z M 4.160156 -3.402344 L 5.238281 -6.402344 L 6.289062 -3.402344 Z M 4.160156 -3.402344 "/></g></g></g><g fill="#803e3e" fill-opacity="1"><g transform="translate(174.657539, 53.378487)"><g><path d="M 3.59375 0 L 3.59375 -4.402344 L 5.820312 -4.402344 C 10.285156 -4.402344 10.300781 -11.511719 5.820312 -11.511719 L 1.289062 -11.511719 L 1.289062 0 Z M 3.59375 -6.644531 L 3.59375 -9.222656 L 5.628906 -9.222656 C 7.175781 -9.222656 7.175781 -6.644531 5.628906 -6.644531 Z M 3.59375 -6.644531 "/></g></g></g><g fill="#803e3e" fill-opacity="1"><g transform="translate(188.410524, 53.378487)"><g><path d="M 7.253906 0 L 7.253906 -2.304688 L 3.59375 -2.304688 L 3.59375 -4.609375 L 6.625 -4.609375 L 6.625 -6.917969 L 3.59375 -6.917969 L 3.59375 -9.222656 L 7.0625 -9.222656 L 7.0625 -11.527344 L 1.289062 -11.527344 L 1.289062 0 Z M 7.253906 0 "/></g></g></g><g fill="#803e3e" fill-opacity="1"><g transform="translate(200.567325, 53.378487)"><g><path d="M 9.5625 -4.015625 L 9.5625 -11.527344 L 7.273438 -11.527344 L 7.273438 -4.03125 C 7.273438 -1.613281 3.53125 -1.613281 3.53125 -4.03125 L 3.53125 -11.527344 L 1.226562 -11.527344 L 1.226562 -4.015625 C 1.226562 1.46875 9.5625 1.46875 9.5625 -4.015625 Z M 9.5625 -4.015625 "/></g></g></g><g fill="#803e3e" fill-opacity="1"><g transform="translate(215.416681, 53.378487)"><g><path d="M 5.496094 0 L 5.496094 -9.222656 L 8.367188 -9.222656 L 8.367188 -11.511719 L 0.324219 -11.511719 L 0.324219 -9.222656 L 3.191406 -9.222656 L 3.191406 0 Z M 5.496094 0 "/></g></g></g><g fill="#803e3e" fill-opacity="1"><g transform="translate(228.266776, 53.378487)"><g><path d="M 0.257812 0 L 2.871094 0 L 3.320312 -1.242188 L 7.140625 -1.242188 L 7.609375 0 L 10.207031 0 L 5.351562 -11.945312 L 5.109375 -11.945312 Z M 4.160156 -3.402344 L 5.238281 -6.402344 L 6.289062 -3.402344 Z M 4.160156 -3.402344 "/></g></g></g></svg>